<?xml version="1.0" encoding="iso-8859-1"?>
<!-- Generator: Adobe Illustrator 19.0.0, SVG Export Plug-In . SVG Version: 6.00 Build 0)  -->
<svg version="1.1" id="Layer_1" xmlns="http://www.w3.org/2000/svg" xmlns:xlink="http://www.w3.org/1999/xlink" x="0px" y="0px"
	 viewBox="0 0 505 505" style="enable-background:new 0 0 505 505;" xml:space="preserve">
<circle style="fill:#324A5E;" cx="252.5" cy="252.5" r="252.5"/>
<path style="fill:#FFFFFF;" d="M413.5,218.8h-322c-2.9,0-5.3,2.4-5.3,5.3v138.8c0,2.9,2.4,5.3,5.3,5.3h322c2.9,0,5.3-2.4,5.3-5.3
	V224.1C418.8,221.2,416.4,218.8,413.5,218.8z"/>
<g>
	<rect x="102.5" y="234.1" style="fill:#E6E9EE;" width="21.2" height="21.2"/>
	<rect x="137.3" y="234.1" style="fill:#E6E9EE;" width="21.2" height="21.2"/>
	<rect x="172.2" y="234.1" style="fill:#E6E9EE;" width="21.2" height="21.2"/>
	<rect x="207" y="234.1" style="fill:#E6E9EE;" width="21.2" height="21.2"/>
	<rect x="241.9" y="234.1" style="fill:#E6E9EE;" width="21.2" height="21.2"/>
	<rect x="276.7" y="234.1" style="fill:#E6E9EE;" width="21.2" height="21.2"/>
</g>
<rect x="311.6" y="234.1" style="fill:#4CDBC4;" width="21.2" height="21.2"/>
<rect x="346.4" y="234.1" style="fill:#FF7058;" width="21.2" height="21.2"/>
<rect x="381.3" y="234.1" style="fill:#FFD05B;" width="21.2" height="21.2"/>
<g>
	<rect x="102.5" y="266.6" style="fill:#E6E9EE;" width="21.2" height="21.2"/>
	<rect x="137.3" y="266.6" style="fill:#E6E9EE;" width="21.2" height="21.2"/>
	<rect x="172.2" y="266.6" style="fill:#E6E9EE;" width="21.2" height="21.2"/>
	<rect x="207" y="266.6" style="fill:#E6E9EE;" width="21.2" height="21.2"/>
	<rect x="241.9" y="266.6" style="fill:#E6E9EE;" width="21.2" height="21.2"/>
	<rect x="276.7" y="266.6" style="fill:#E6E9EE;" width="21.2" height="21.2"/>
	<rect x="311.6" y="266.6" style="fill:#E6E9EE;" width="21.2" height="21.2"/>
	<rect x="346.4" y="266.6" style="fill:#E6E9EE;" width="21.2" height="21.2"/>
	<rect x="381.3" y="266.6" style="fill:#E6E9EE;" width="21.2" height="21.2"/>
	<rect x="102.5" y="299.2" style="fill:#E6E9EE;" width="21.2" height="21.2"/>
	<rect x="137.3" y="299.2" style="fill:#E6E9EE;" width="21.2" height="21.2"/>
	<rect x="172.2" y="299.2" style="fill:#E6E9EE;" width="21.2" height="21.2"/>
	<rect x="207" y="299.2" style="fill:#E6E9EE;" width="21.2" height="21.2"/>
	<rect x="241.9" y="299.2" style="fill:#E6E9EE;" width="21.2" height="21.2"/>
	<rect x="276.7" y="299.2" style="fill:#E6E9EE;" width="21.2" height="21.2"/>
	<rect x="311.6" y="299.2" style="fill:#E6E9EE;" width="21.2" height="21.2"/>
	<rect x="346.4" y="299.2" style="fill:#E6E9EE;" width="21.2" height="21.2"/>
	<rect x="102.5" y="331.7" style="fill:#E6E9EE;" width="21.2" height="21.2"/>
	<rect x="137.3" y="331.7" style="fill:#E6E9EE;" width="21.2" height="21.2"/>
	<rect x="207" y="331.7" style="fill:#E6E9EE;" width="21.2" height="21.2"/>
	<rect x="172.2" y="331.7" style="fill:#E6E9EE;" width="90.9" height="21.2"/>
	<rect x="276.7" y="331.7" style="fill:#E6E9EE;" width="21.2" height="21.2"/>
	<rect x="311.6" y="331.7" style="fill:#E6E9EE;" width="21.2" height="21.2"/>
	<rect x="346.4" y="331.7" style="fill:#E6E9EE;" width="21.2" height="21.2"/>
</g>
<rect x="381.3" y="299.2" style="fill:#FF7058;" width="21.2" height="53.8"/>
<path style="fill:#FFFFFF;" d="M252.5,223.8c-2.7,0-4.9-2.2-4.9-4.9v-23.7c0-16.8,13.7-30.5,30.5-30.5h57.5
	c11.4,0,20.6-9.3,20.6-20.6c0-11.4-9.3-20.6-20.6-20.6H203.8c-16.8,0-30.5-13.7-30.5-30.5V78.6c0-2.7,2.2-4.9,4.9-4.9
	s4.9,2.2,4.9,4.9v14.3c0,11.4,9.3,20.6,20.6,20.6h131.7c16.8,0,30.5,13.7,30.5,30.5s-13.7,30.5-30.5,30.5h-57.5
	c-11.4,0-20.6,9.3-20.6,20.6v23.7C257.4,221.6,255.2,223.8,252.5,223.8z"/>
<g>
</g>
<g>
</g>
<g>
</g>
<g>
</g>
<g>
</g>
<g>
</g>
<g>
</g>
<g>
</g>
<g>
</g>
<g>
</g>
<g>
</g>
<g>
</g>
<g>
</g>
<g>
</g>
<g>
</g>
</svg>
